<?xml version="1.0" encoding="utf-8"?>
<!-- Generator: Adobe Illustrator 24.2.3, SVG Export Plug-In . SVG Version: 6.00 Build 0)  -->
<svg version="1.1" id="Layer_1" xmlns="http://www.w3.org/2000/svg" xmlns:xlink="http://www.w3.org/1999/xlink" x="0px" y="0px"
	 viewBox="0 0 406.71 98.09" style="enable-background:new 0 0 406.71 98.09;" xml:space="preserve">
<style type="text/css">
	.st0{fill:#FFFFFF;}
	.st1{fill:#0071BC;}
	.st2{fill:#29ABE2;}
</style>
<g>
	<g>
		<path class="st0" d="M150.19,34.58v5.83c0,0.7,0.58,1.27,1.29,1.27h16.24c0.71,0,1.29,0.58,1.29,1.29v6.56
			c0,0.71-0.58,1.29-1.29,1.29h-16.24c-0.71,0-1.29,0.58-1.29,1.27v9.53c0,0.71,0.58,1.29,1.29,1.29h17.85
			c0.7,0,1.27,0.58,1.27,1.27v6.57c0,0.71-0.57,1.27-1.27,1.27h-29.81c-0.71,0-1.29-0.56-1.29-1.27v-45.3c0-0.7,0.58-1.27,1.29-1.27
			h29.81c0.7,0,1.27,0.58,1.27,1.27v6.57c0,0.71-0.57,1.27-1.27,1.27h-17.85C150.76,33.29,150.19,33.86,150.19,34.58z"/>
		<path class="st0" d="M209.94,71.19l-0.05,0.11c-0.22,0.45-0.66,0.73-1.15,0.73h-7.41c-0.42,0-0.82-0.21-1.05-0.56l-8.06-11.86
			c-0.47-0.68-1.44-0.75-2-0.14l-2.26,2.45c-0.22,0.23-0.34,0.55-0.34,0.86v7.97c0,0.71-0.58,1.27-1.27,1.27h-6.53
			c-0.7,0-1.27-0.56-1.27-1.27V24.59c0-0.71,0.58-1.29,1.27-1.29h6.53c0.7,0,1.27,0.58,1.27,1.29v22.49c0,1.16,1.44,1.73,2.23,0.86
			l9.45-10.27c0.23-0.26,0.58-0.41,0.93-0.41h7.58c0.49,0,0.94,0.27,1.16,0.73c0.08,0.18,0.12,0.37,0.12,0.55
			c0,0.33-0.12,0.63-0.34,0.88l-10.76,11.57c-0.41,0.45-0.45,1.11-0.11,1.6l11.97,17.31C210.1,70.28,210.13,70.77,209.94,71.19z"/>
		<path class="st0" d="M247.2,39.23l-14.09,45.06c-0.16,0.53-0.66,0.9-1.22,0.9h-6.22c-0.42,0-0.82-0.22-1.05-0.58l-0.21-0.29
			c-0.22-0.33-0.27-0.74-0.14-1.11l3.18-9.5c0.27-0.84-0.34-1.7-1.2-1.7h-1.7c-0.56,0-1.05-0.36-1.22-0.89l-10.01-31.9
			c-0.11-0.37-0.05-0.77,0.16-1.1l0.19-0.3c0.25-0.36,0.64-0.56,1.07-0.56h6.2c0.56,0,1.07,0.37,1.22,0.9l7.76,25.94h0.66
			l7.76-25.94c0.16-0.53,0.66-0.9,1.22-0.9h6.2c0.42,0,0.82,0.21,1.07,0.56l0.19,0.3C247.26,38.46,247.31,38.86,247.2,39.23z"/>
		<path class="st0" d="M261.87,48.55v12.19c0,1.88,1.52,3.38,3.38,3.38h13.12c0.7,0,1.27,0.58,1.27,1.29v3.01
			c0,0.41-0.19,0.79-0.51,1.03l-3.09,2.33c-0.23,0.16-0.49,0.25-0.78,0.25h-10.53c-6.6,0-11.95-5.34-11.95-11.94V49.21
			c0-6.6,5.35-11.94,11.95-11.94h10.53c0.29,0,0.55,0.08,0.78,0.25l3.09,2.33c0.31,0.25,0.51,0.62,0.51,1.03v3.01
			c0,0.71-0.58,1.29-1.27,1.29h-13.12C263.39,45.17,261.87,46.68,261.87,48.55z"/>
		<path class="st0" d="M328.02,25.44v45.3c0,0.71-0.57,1.27-1.29,1.27h-9.46c-0.7,0-1.27-0.56-1.27-1.27V52.09
			c0-0.7-0.58-1.27-1.29-1.27h-13.8c-0.7,0-1.27,0.58-1.27,1.27v18.66c0,0.71-0.58,1.27-1.29,1.27h-9.46c-0.7,0-1.27-0.56-1.27-1.27
			v-45.3c0-0.7,0.58-1.27,1.27-1.27h9.46c0.71,0,1.29,0.58,1.29,1.27v14.96c0,0.7,0.57,1.27,1.27,1.27h13.8
			c0.71,0,1.29-0.58,1.29-1.27V25.44c0-0.7,0.57-1.27,1.27-1.27h9.46C327.45,24.17,328.02,24.74,328.02,25.44z"/>
		<path class="st0" d="M367.33,38.55v32.2c0,0.71-0.58,1.27-1.27,1.27h-16.66c-6.6,0-11.95-5.34-11.95-11.94V38.55
			c0-0.7,0.58-1.27,1.29-1.27h6.52c0.71,0,1.29,0.58,1.29,1.27v22.19c0,1.88,1.52,3.38,3.38,3.38h7.05c0.71,0,1.29-0.56,1.29-1.27
			v-24.3c0-0.7,0.58-1.27,1.27-1.27h6.53C366.76,37.27,367.33,37.85,367.33,38.55z"/>
		<path class="st0" d="M394.75,37.27h-7.57c-0.71,0-1.29-0.58-1.29-1.29V24.59c0-0.71-0.57-1.29-1.27-1.29h-6.53
			c-0.7,0-1.27,0.58-1.27,1.29v46.15c0,0.71,0.57,1.27,1.27,1.27h16.66c6.6,0,11.95-5.34,11.95-11.94V49.21
			C406.71,42.61,401.35,37.27,394.75,37.27z M397.61,60.74c0,1.88-1.52,3.38-3.38,3.38h-7.05c-0.71,0-1.29-0.56-1.29-1.27v-16.4
			c0-0.7,0.58-1.27,1.29-1.27h7.05c1.86,0,3.38,1.51,3.38,3.38V60.74z"/>
	</g>
</g>
<g>
	<path class="st1" d="M103.43,64.29c-6.4,19.62-24.85,33.8-46.61,33.8c-9.83,0-18.98-2.89-26.65-7.87
		c-3.36-2.18-6.43-4.76-9.15-7.67c-3.33-3.56-6.14-7.6-8.29-12.04l18.21-6.44c2.67,4.59,6.53,8.4,11.14,11.02
		c4.35,2.47,9.38,3.88,14.74,3.88c3.28,0,6.42-0.53,9.37-1.5c0.05-0.02,0.1-0.03,0.15-0.05c0.33-0.11,0.66-0.23,0.98-0.35
		c0.01,0,0.03-0.01,0.04-0.01L103.43,64.29z"/>
	<path class="st2" d="M116.02,48.93l-10.29,3.64l-21.06,7.45l-20.41,7.23l-1.73,0.61c-1.8,0.55-3.73,0.85-5.72,0.85
		c-2.66,0-5.19-0.53-7.5-1.48c-3.4-1.4-6.31-3.73-8.44-6.67l1.3-0.46l34.27-12.13l9.94-3.51c-0.48-3.13-1.45-6.09-2.82-8.83
		c-4.91-9.79-15.05-16.51-26.76-16.51c-16.08,0-29.2,12.67-29.9,28.59l10.68-2.8c1.9-8.87,9.77-15.52,19.22-15.52
		c7.22,0,13.54,3.9,16.96,9.71l-36.4,12.88l-9.79,3.46L9.46,61.85L3.7,63.89L0,54.76l7.9-2.07c-0.08-1.2-0.13-2.42-0.13-3.64
		C7.76,21.96,29.72,0,56.81,0c20.03,0,37.24,12.01,44.86,29.22c1.24,2.8,2.22,5.74,2.93,8.79c0.39,1.65,0.68,3.35,0.88,5.07
		l7.24-2.56L116.02,48.93z"/>
</g>
</svg>
